<?xml version="1.0" encoding="UTF-8"?>
<svg version="1.1" xmlns="http://www.w3.org/2000/svg" width="83" height="83">
<path d="M0 0 C27.39 0 54.78 0 83 0 C83 27.39 83 54.78 83 83 C55.61 83 28.22 83 0 83 C0 55.61 0 28.22 0 0 Z " fill="#E32213" transform="translate(0,0)"/>
<path d="M0 0 C3.78092673 1.26030891 3.98431601 2.25390031 5.875 5.6875 C6.78572266 7.30398438 6.78572266 7.30398438 7.71484375 8.953125 C8.24247314 9.89381836 8.24247314 9.89381836 8.78076172 10.85351562 C11.27667136 15.24759604 13.8641616 19.5884808 16.4375 23.9375 C17.0039624 24.89648193 17.5704248 25.85546387 18.15405273 26.84350586 C22.3568314 33.94651151 26.65247897 40.98468198 31 48 C32.15052437 49.87212518 33.29667712 51.74694724 34.4375 53.625 C34.91058594 54.40101562 35.38367188 55.17703125 35.87109375 55.9765625 C37 58 37 58 38 61 C38.66 61 39.32 61 40 61 C40 61.99 40 62.98 40 64 C39.01 64 38.02 64 37 64 C36.9071875 65.1446875 36.9071875 65.1446875 36.8125 66.3125 C36 69 36 69 33.75 70.9375 C31 72 31 72 28.70703125 71.2578125 C24.69414958 69.39324122 20.77195737 67.36788217 16.83984375 65.33984375 C11.43409779 62.7894024 6.57133654 62.81700869 0.6875 62.8125 C-0.14201172 62.80025391 -0.97152344 62.78800781 -1.82617188 62.77539062 C-11.78579912 62.75180824 -19.24902471 65.79921977 -27 72 C-29.49361571 70.79618552 -31.68143083 69.54571278 -34 68 C-32.95125002 65.37812506 -32.35068687 64.20628639 -29.875 62.75 C-29.25625 62.5025 -28.6375 62.255 -28 62 C-28.495 60.515 -28.495 60.515 -29 59 C-29.598125 59.309375 -30.19625 59.61875 -30.8125 59.9375 C-33 61 -33 61 -36 62 C-34.49256279 57.91926088 -32.54408628 54.26781522 -30.375 50.5 C-30.02816162 49.89704102 -29.68132324 49.29408203 -29.32397461 48.67285156 C-26.17554986 43.23266813 -22.89051683 37.88106419 -19.56640625 32.546875 C-18.02762462 30.12828094 -18.02762462 30.12828094 -17 28 C-16.34 28 -15.68 28 -15 28 C-14.9071875 26.9790625 -14.9071875 26.9790625 -14.8125 25.9375 C-13.92975406 22.74603391 -12.44472023 20.71063022 -10.46484375 18.09375 C-8.14687547 14.78060067 -6.32128244 11.21690578 -4.4296875 7.6484375 C-3.02663028 5.0493315 -1.53812188 2.52106367 0 0 Z " fill="#E32416" transform="translate(41,4)"/>
<path d="M0 0 C3.78092673 1.26030891 3.98431601 2.25390031 5.875 5.6875 C6.78572266 7.30398438 6.78572266 7.30398438 7.71484375 8.953125 C8.24247314 9.89381836 8.24247314 9.89381836 8.78076172 10.85351562 C11.27667136 15.24759604 13.8641616 19.5884808 16.4375 23.9375 C17.0039624 24.89648193 17.5704248 25.85546387 18.15405273 26.84350586 C22.35680669 33.94646974 26.65077835 40.98576554 31 48 C32.13000432 49.83025308 33.25532451 51.66340998 34.375 53.5 C35.06722656 54.62921875 35.06722656 54.62921875 35.7734375 55.78125 C37.06962643 58.12594845 38.0562174 60.49500694 39 63 C37.515 62.505 37.515 62.505 36 62 C36 61.34 36 60.68 36 60 C35.43410156 59.75378906 34.86820312 59.50757813 34.28515625 59.25390625 C31.60751742 57.78463776 29.66956388 56.02247565 27.4375 53.9375 C23.83437913 50.63154374 20.17336142 47.45489528 16.375 44.375 C12.99701737 41.63129007 9.62544091 38.88463485 6.3125 36.0625 C5.66925781 35.51722656 5.02601562 34.97195312 4.36328125 34.41015625 C3 33 3 33 3 31 C-1.89526675 33.61202666 -5.71122409 36.3216551 -9.75 40.1875 C-13.65455093 43.87502839 -17.61865531 47.38684807 -21.8125 50.75 C-25.70977265 53.87570278 -29.26363034 57.12288748 -32.66015625 60.78515625 C-34 62 -34 62 -36 62 C-34.49256279 57.91926088 -32.54408628 54.26781522 -30.375 50.5 C-30.02816162 49.89704102 -29.68132324 49.29408203 -29.32397461 48.67285156 C-26.17554986 43.23266813 -22.89051683 37.88106419 -19.56640625 32.546875 C-18.02762462 30.12828094 -18.02762462 30.12828094 -17 28 C-16.34 28 -15.68 28 -15 28 C-14.9071875 26.9790625 -14.9071875 26.9790625 -14.8125 25.9375 C-13.92975406 22.74603391 -12.44472023 20.71063022 -10.46484375 18.09375 C-8.14687547 14.78060067 -6.32128244 11.21690578 -4.4296875 7.6484375 C-3.02663028 5.0493315 -1.53812188 2.52106367 0 0 Z " fill="#FDF3F2" transform="translate(41,4)"/>
<path d="M0 0 C0.64324219 0.51949219 1.28648438 1.03898437 1.94921875 1.57421875 C1.25543364 4.83433517 0.49027884 6.36460128 -2.05078125 8.57421875 C-6.95989511 6.7027886 -11.54663205 4.31973832 -16.2109375 1.9140625 C-21.61668346 -0.63637885 -26.47944471 -0.60877256 -32.36328125 -0.61328125 C-33.60754883 -0.63165039 -33.60754883 -0.63165039 -34.87695312 -0.65039062 C-44.83658037 -0.67397301 -52.29980596 2.37343852 -60.05078125 8.57421875 C-62.54439696 7.37040427 -64.73221208 6.11993153 -67.05078125 4.57421875 C-64.21046121 -2.17154134 -57.45443572 -6.06553457 -50.92578125 -8.80078125 C-32.93326348 -15.76758106 -14.75948073 -11.39069768 0 0 Z " fill="#FAF1F1" transform="translate(74.05078125,67.42578125)"/>
<path d="M0 0 C0.79341797 0.00676758 1.58683594 0.01353516 2.40429688 0.02050781 C11.86960175 0.18800086 19.3872976 2.51911963 28.0625 6.25 C27.36871489 9.51011642 26.60356009 11.04038253 24.0625 13.25 C19.15338614 11.37856985 14.5666492 8.99551957 9.90234375 6.58984375 C5.82771595 4.66742651 2.57135744 4.12494599 -1.921875 4.15234375 C-2.85644531 4.15556641 -3.79101562 4.15878906 -4.75390625 4.16210938 C-6.20603516 4.17467773 -6.20603516 4.17467773 -7.6875 4.1875 C-9.16283203 4.19426758 -9.16283203 4.19426758 -10.66796875 4.20117188 C-13.09120791 4.21293517 -15.51432273 4.22937316 -17.9375 4.25 C-17.6075 3.59 -17.2775 2.93 -16.9375 2.25 C-11.21077985 0.43685783 -5.97949352 -0.07391531 0 0 Z " fill="#9091A0" transform="translate(47.9375,62.75)"/>
<path d="M0 0 C-0.56371414 3.26954202 -1.49962266 4.82575883 -4 7 C-6.475 6.01 -6.475 6.01 -9 5 C-9 3.68 -9 2.36 -9 1 C-10.32 1 -11.64 1 -13 1 C-13 0.01 -13 -0.98 -13 -2 C-8.1750546 -3.60831513 -4.54540006 -1.9480286 0 0 Z " fill="#809FB4" transform="translate(76,69)"/>
<path d="M0 0 C1.10673834 0.76713644 2.21027694 1.53889003 3.3125 2.3125 C3.92738281 2.74175781 4.54226562 3.17101563 5.17578125 3.61328125 C6.94645331 4.95929534 8.46738009 6.39192803 10 8 C10.33 7.34 10.66 6.68 11 6 C11 6.99 11 7.98 11 9 C10.01 9 9.02 9 8 9 C7.67 10.65 7.34 12.3 7 14 C6.01 14 5.02 14 4 14 C4.33 12.68 4.66 11.36 5 10 C2.69 8.35 0.38 6.7 -2 5 C-1.34 4.34 -0.68 3.68 0 3 C0 2.01 0 1.02 0 0 Z " fill="#E4291C" transform="translate(70,59)"/>
<path d="M0 0 C9.59453303 5.0022779 9.59453303 5.0022779 13 9 C12.45472656 8.80664062 11.90945312 8.61328125 11.34765625 8.4140625 C5.9561948 6.55239547 0.59078274 5.12344334 -5 4 C-5 3.67 -5 3.34 -5 3 C-3.35 2.67 -1.7 2.34 0 2 C0 1.34 0 0.68 0 0 Z " fill="#EDE4E5" transform="translate(62,60)"/>
<path d="M0 0 C1.45742463 -0.08096803 2.91612807 -0.13917774 4.375 -0.1875 C5.18710937 -0.22230469 5.99921875 -0.25710937 6.8359375 -0.29296875 C7.55007812 -0.19628906 8.26421875 -0.09960938 9 0 C9.66 0.99 10.32 1.98 11 3 C10.67 3.66 10.34 4.32 10 5 C5 3 5 3 0 1 C0 0.67 0 0.34 0 0 Z " fill="#E53224" transform="translate(58,58)"/>
<path d="M0 0 C0.33 0.99 0.66 1.98 1 3 C0.01 3 -0.98 3 -2 3 C-2.33 4.65 -2.66 6.3 -3 8 C-3.99 8 -4.98 8 -6 8 C-5.814375 7.38125 -5.62875 6.7625 -5.4375 6.125 C-4.76313824 3.95839822 -4.76313824 3.95839822 -6 2 C-2.25 0.875 -2.25 0.875 0 2 C0 1.34 0 0.68 0 0 Z " fill="#D9382D" transform="translate(80,65)"/>
<path d="M0 0 C2.79872437 2.52788007 4.45773019 4.20411134 5 8 C4.01 7.67 3.02 7.34 2 7 C2 6.34 2 5.68 2 5 C1.01 4.67 0.02 4.34 -1 4 C-0.67 2.68 -0.34 1.36 0 0 Z " fill="#F5B3AE" transform="translate(75,59)"/>
<path d="M0 0 C0.66 0.33 1.32 0.66 2 1 C1.75 2.875 1.75 2.875 1 5 C-1.0625 6.25 -1.0625 6.25 -3 7 C-1.125 2.25 -1.125 2.25 0 0 Z " fill="#F7C2BE" transform="translate(8,59)"/>
<path d="M0 0 C0.66 0.33 1.32 0.66 2 1 C0.515 3.475 0.515 3.475 -1 6 C-2.32 5.67 -3.64 5.34 -5 5 C-3.35 3.35 -1.7 1.7 0 0 Z " fill="#E53226" transform="translate(37,38)"/>
<path d="M0 0 C-0.33 0.66 -0.66 1.32 -1 2 C-3.64860427 2.59355614 -6.29197322 2.74209269 -9 3 C-7.01532024 -0.96935951 -3.9567243 -1.41311582 0 0 Z " fill="#D9544C" transform="translate(30,68)"/>
<path d="M0 0 C0.33 0.99 0.66 1.98 1 3 C-0.9375 6.1875 -0.9375 6.1875 -3 9 C-3.33 8.01 -3.66 7.02 -4 6 C-2.0625 2.8125 -2.0625 2.8125 0 0 Z " fill="#E1190C" transform="translate(28,22)"/>
</svg>
